<svg version="1.1" xmlns="http://www.w3.org/2000/svg" viewBox="-343.0400001525879 -2709.5039886474606 2401.2800048828126 3064.831979370117"><desc>Created with Snap</desc><defs></defs><g><g transform="matrix(25.5823,0,0,25.5823,38.965,-2479.051)"><g><path d="M55,28h-4c-0.553,0-1,0.447-1,1s0.447,1,1,1h2v1c0,0.553,0.447,1,1,1s1-0.447,1-1v-1c1.654,0,3-1.346,3-3s-1.346-3-3-3h-2   c-0.552,0-1-0.448-1-1s0.448-1,1-1h4c0.553,0,1-0.447,1-1s-0.447-1-1-1h-2v-1c0-0.553-0.447-1-1-1s-1,0.447-1,1v1   c-1.654,0-3,1.346-3,3s1.346,3,3,3h2c0.552,0,1,0.448,1,1S55.552,28,55,28z" fill="#195190" style=""></path><path d="M61,14H47v-2c0-0.009-0.005-0.017-0.005-0.027c-0.003-0.098-0.015-0.195-0.046-0.29l-2-6C44.812,5.275,44.431,5,44,5V4   c0-0.553-0.447-1-1-1s-1,0.447-1,1v1c-0.431,0-0.813,0.275-0.948,0.684l-2,6c-0.032,0.095-0.044,0.192-0.046,0.29   C39.005,11.983,39,11.991,39,12v2H3c-0.553,0-1,0.447-1,1v34c0,0.553,0.447,1,1,1h36v8c0,1.654,1.346,3,3,3h2c1.654,0,3-1.346,3-3   v-4h3c0.553,0,1-0.447,1-1v-3h10c0.553,0,1-0.447,1-1V15C62,14.447,61.553,14,61,14z M41,15v-2h4v2v31h-4V15z M42.721,7h0.559   l1.333,4h-3.225L42.721,7z M4,48V16h35v32H4z M45,58c0,0.552-0.448,1-1,1h-2c-0.552,0-1-0.448-1-1v-9v-1h4v1V58z M49,52h-2v-2h2V52   z M60,48h-9v-7c0-0.553-0.447-1-1-1s-1,0.447-1,1v7h-2V16h13V48z" fill="#195190" style=""></path><path d="M22,37H8c-0.553,0-1,0.447-1,1v6c0,0.553,0.447,1,1,1h14c0.553,0,1-0.447,1-1v-6C23,37.447,22.553,37,22,37z M21,43H9v-4   h12V43z" fill="#195190" style=""></path><rect x="25" y="38" width="12" height="2" fill="#195190" style=""></rect><rect x="25" y="42" width="8" height="2" fill="#195190" style=""></rect><rect x="6" y="27" width="31" height="2" fill="#195190" style=""></rect><rect x="7" y="19" width="22" height="2" fill="#195190" style=""></rect><rect x="7" y="23" width="22" height="2" fill="#195190" style=""></rect></g><desc>Created with Snap</desc><defs></defs></g><g><g transform="matrix(1.024,0,0,-1.024,0,0)"><path d="M517 -31Q479 -31 461 -9Q443 14 443 45Q443 69 450 92Q457 116 464 139Q472 162 472 181Q472 199 464 206Q457 213 447 213Q423 213 393 176Q363 140 317 72Q301 48 288 22Q275 -4 264 -23Q256 -23 242 -20Q228 -17 217 -12Q207 -7 207 1Q207 10 217 36Q227 62 240 97Q253 132 262 166Q272 201 272 225Q272 240 267 248Q262 257 250 257Q229 257 199 231Q169 206 136 165Q103 124 74 73Q46 23 28 -27Q17 -27 2 -23Q-13 -19 -24 -13Q-35 -7 -35 -2Q-35 1 -27 29Q-19 57 -8 98Q4 139 14 182Q25 225 31 258Q35 267 52 275Q69 283 83 283Q97 283 105 275Q114 267 114 253Q114 242 109 218Q104 195 96 167Q117 196 141 225Q165 255 191 279Q218 303 244 317Q271 332 297 332Q332 332 344 307Q357 282 357 251Q357 234 353 216Q350 199 345 182Q341 166 335 150Q355 182 378 209Q402 237 429 253Q456 270 487 270Q524 270 538 248Q552 226 552 199Q552 173 543 143Q535 114 526 87Q517 61 517 42Q517 31 522 22Q528 13 544 13Q571 13 596 38Q621 63 642 99Q663 136 678 169L694 151Q678 109 652 67Q627 25 593 -3Q559 -31 517 -31ZM708 -47Q676 -47 652 -26Q629 -4 629 39Q629 75 645 116Q661 157 689 197Q717 237 753 270Q789 303 829 323Q870 343 910 343Q952 343 980 321Q1009 300 1009 265Q1009 238 992 227Q975 216 950 220Q952 228 953 237Q955 247 955 256Q955 277 946 293Q937 309 911 309Q883 309 854 290Q825 271 798 240Q771 209 750 172Q729 135 717 99Q705 63 705 35Q705 1 730 1Q753 1 780 23Q808 45 836 79Q865 113 891 148Q917 184 936 211Q940 216 943 216Q948 215 959 211Q970 208 979 202Q988 196 988 186Q988 176 979 160Q970 145 959 126Q948 107 939 88Q930 69 930 51Q930 38 937 25Q945 13 962 13Q987 13 1030 49Q1074 86 1119 169L1135 153Q1112 99 1078 58Q1045 17 1008 -7Q971 -30 934 -30Q894 -30 875 -6Q856 19 854 48Q854 51 854 54Q855 58 855 61Q814 10 780 -19Q746 -47 708 -47ZM1185 -46Q1141 -46 1115 -21Q1090 5 1090 57Q1090 99 1106 161Q1122 223 1146 289Q1138 291 1128 292Q1119 294 1111 298L1111 325Q1124 323 1134 322Q1145 321 1157 320Q1178 373 1202 423Q1227 473 1251 512Q1275 551 1297 574Q1319 597 1335 597Q1345 597 1353 590Q1361 583 1361 570Q1361 551 1340 513Q1320 476 1289 425Q1259 375 1231 317Q1239 317 1247 317Q1256 317 1264 317Q1304 317 1340 318Q1376 320 1413 324L1413 296Q1358 290 1312 287Q1267 284 1228 284Q1225 284 1221 284Q1218 284 1215 284Q1193 233 1177 180Q1162 127 1162 77Q1162 35 1175 17Q1188 0 1217 0Q1267 0 1319 46Q1371 92 1409 170L1423 160Q1398 102 1360 55Q1322 8 1277 -19Q1233 -46 1185 -46ZM1472 -46Q1428 -46 1402 -21Q1377 5 1377 57Q1377 99 1393 161Q1409 223 1433 289Q1425 291 1415 292Q1406 294 1398 298L1398 325Q1411 323 1421 322Q1432 321 1444 320Q1465 373 1489 423Q1514 473 1538 512Q1562 551 1584 574Q1606 597 1622 597Q1632 597 1640 590Q1648 583 1648 570Q1648 551 1627 513Q1607 476 1576 425Q1546 375 1518 317Q1526 317 1534 317Q1543 317 1551 317Q1591 317 1627 318Q1663 320 1700 324L1700 296Q1645 290 1599 287Q1554 284 1515 284Q1512 284 1508 284Q1505 284 1502 284Q1480 233 1464 180Q1449 127 1449 77Q1449 35 1462 17Q1475 0 1504 0Q1554 0 1606 46Q1658 92 1696 170L1710 160Q1685 102 1647 55Q1609 8 1564 -19Q1520 -46 1472 -46Z" fill="#195190" style=""></path></g></g></g></svg>